<mxfile host="app.diagrams.net" agent="Mozilla/5.0 (Windows NT 10.0; Win64; x64) AppleWebKit/537.36 (KHTML, like Gecko) Chrome/136.0.0.0 Safari/537.36" version="27.0.3">
  <diagram name="Страница — 1" id="Vz9es_R9YDekIZJTPVuq">
    <mxGraphModel dx="2634" dy="2209" grid="1" gridSize="10" guides="1" tooltips="1" connect="1" arrows="1" fold="1" page="1" pageScale="1" pageWidth="827" pageHeight="1169" math="0" shadow="0">
      <root>
        <mxCell id="0" />
        <mxCell id="1" parent="0" />
        <mxCell id="nU0FKhonJH8cC0q0gZY5-1" value="Board" style="swimlane;whiteSpace=wrap;html=1;" vertex="1" parent="1">
          <mxGeometry x="100" y="120" width="240" height="270" as="geometry">
            <mxRectangle x="120" y="120" width="140" height="30" as="alternateBounds" />
          </mxGeometry>
        </mxCell>
        <mxCell id="nU0FKhonJH8cC0q0gZY5-2" value="&lt;font style=&quot;font-size: 16px;&quot;&gt;cells:Cell[][] [1]&lt;/font&gt;" style="text;html=1;align=left;verticalAlign=middle;whiteSpace=wrap;rounded=0;" vertex="1" parent="nU0FKhonJH8cC0q0gZY5-1">
          <mxGeometry x="10" y="30" width="120" height="30" as="geometry" />
        </mxCell>
        <mxCell id="nU0FKhonJH8cC0q0gZY5-4" value="&lt;font style=&quot;font-size: 16px;&quot;&gt;currentPlayer: Player [1]&lt;/font&gt;" style="text;html=1;align=left;verticalAlign=middle;whiteSpace=wrap;rounded=0;" vertex="1" parent="nU0FKhonJH8cC0q0gZY5-1">
          <mxGeometry x="10" y="60" width="190" height="30" as="geometry" />
        </mxCell>
        <mxCell id="nU0FKhonJH8cC0q0gZY5-6" value="&lt;span style=&quot;color: rgb(64, 64, 64); text-wrap-mode: wrap;&quot;&gt;&lt;font style=&quot;font-size: 16px;&quot; face=&quot;Helvetica&quot;&gt;initialize()&lt;/font&gt;&lt;/span&gt;" style="text;html=1;align=left;verticalAlign=middle;resizable=0;points=[];autosize=1;strokeColor=none;fillColor=none;" vertex="1" parent="nU0FKhonJH8cC0q0gZY5-1">
          <mxGeometry x="10" y="90" width="90" height="30" as="geometry" />
        </mxCell>
        <mxCell id="nU0FKhonJH8cC0q0gZY5-10" value="&lt;span style=&quot;text-wrap-mode: wrap;&quot;&gt;&lt;font style=&quot;font-size: 16px; color: rgb(0, 0, 0);&quot; face=&quot;Helvetica&quot;&gt;getValidMoves(player)&lt;/font&gt;&lt;/span&gt;" style="text;html=1;align=left;verticalAlign=middle;resizable=0;points=[];autosize=1;strokeColor=none;fillColor=none;" vertex="1" parent="nU0FKhonJH8cC0q0gZY5-1">
          <mxGeometry x="10" y="180" width="180" height="30" as="geometry" />
        </mxCell>
        <mxCell id="nU0FKhonJH8cC0q0gZY5-11" value="&lt;span style=&quot;text-wrap-mode: wrap;&quot;&gt;&lt;font style=&quot;font-size: 16px; color: rgb(0, 0, 0);&quot; face=&quot;Helvetica&quot;&gt;isGameOver()&lt;/font&gt;&lt;/span&gt;" style="text;html=1;align=left;verticalAlign=middle;resizable=0;points=[];autosize=1;strokeColor=none;fillColor=none;" vertex="1" parent="nU0FKhonJH8cC0q0gZY5-1">
          <mxGeometry x="10" y="210" width="120" height="30" as="geometry" />
        </mxCell>
        <mxCell id="nU0FKhonJH8cC0q0gZY5-13" value="&lt;span style=&quot;text-wrap-mode: wrap;&quot;&gt;&lt;font style=&quot;font-size: 16px; color: rgb(0, 0, 0);&quot; face=&quot;Helvetica&quot;&gt;getWinner()&lt;/font&gt;&lt;/span&gt;" style="text;html=1;align=left;verticalAlign=middle;resizable=0;points=[];autosize=1;strokeColor=none;fillColor=none;" vertex="1" parent="nU0FKhonJH8cC0q0gZY5-1">
          <mxGeometry x="10" y="240" width="110" height="30" as="geometry" />
        </mxCell>
        <mxCell id="nU0FKhonJH8cC0q0gZY5-55" value="&lt;font style=&quot;font-size: 16px;&quot;&gt;isVaidMove(row, col, player)&lt;/font&gt;" style="text;html=1;align=left;verticalAlign=middle;resizable=0;points=[];autosize=1;strokeColor=none;fillColor=none;" vertex="1" parent="nU0FKhonJH8cC0q0gZY5-1">
          <mxGeometry x="10" y="120" width="220" height="30" as="geometry" />
        </mxCell>
        <mxCell id="nU0FKhonJH8cC0q0gZY5-57" value="&lt;font style=&quot;font-size: 16px;&quot;&gt;makeMove(row, col, player)&lt;/font&gt;" style="text;html=1;align=left;verticalAlign=middle;resizable=0;points=[];autosize=1;strokeColor=none;fillColor=none;" vertex="1" parent="nU0FKhonJH8cC0q0gZY5-1">
          <mxGeometry x="10" y="150" width="220" height="30" as="geometry" />
        </mxCell>
        <mxCell id="nU0FKhonJH8cC0q0gZY5-5" value="" style="endArrow=none;html=1;rounded=0;" edge="1" parent="1">
          <mxGeometry width="50" height="50" relative="1" as="geometry">
            <mxPoint x="100" y="210" as="sourcePoint" />
            <mxPoint x="340" y="210" as="targetPoint" />
          </mxGeometry>
        </mxCell>
        <mxCell id="nU0FKhonJH8cC0q0gZY5-19" value="Cell" style="swimlane;whiteSpace=wrap;html=1;" vertex="1" parent="1">
          <mxGeometry x="120" y="540" width="200" height="110" as="geometry" />
        </mxCell>
        <mxCell id="nU0FKhonJH8cC0q0gZY5-21" value="&lt;font style=&quot;font-size: 16px;&quot;&gt;col: int [1]&lt;/font&gt;" style="text;html=1;align=left;verticalAlign=middle;resizable=0;points=[];autosize=1;strokeColor=none;fillColor=none;" vertex="1" parent="nU0FKhonJH8cC0q0gZY5-19">
          <mxGeometry x="14" y="50" width="90" height="30" as="geometry" />
        </mxCell>
        <mxCell id="nU0FKhonJH8cC0q0gZY5-20" value="&lt;font style=&quot;font-size: 16px;&quot;&gt;row: int [1]&lt;/font&gt;" style="text;html=1;align=left;verticalAlign=middle;resizable=0;points=[];autosize=1;strokeColor=none;fillColor=none;" vertex="1" parent="nU0FKhonJH8cC0q0gZY5-19">
          <mxGeometry x="14" y="20" width="100" height="30" as="geometry" />
        </mxCell>
        <mxCell id="nU0FKhonJH8cC0q0gZY5-22" value="&lt;font style=&quot;font-size: 16px;&quot;&gt;state: string [1]&lt;/font&gt;" style="text;html=1;align=left;verticalAlign=middle;resizable=0;points=[];autosize=1;strokeColor=none;fillColor=none;" vertex="1" parent="nU0FKhonJH8cC0q0gZY5-19">
          <mxGeometry x="14" y="80" width="130" height="30" as="geometry" />
        </mxCell>
        <mxCell id="nU0FKhonJH8cC0q0gZY5-24" value="Player" style="swimlane;whiteSpace=wrap;html=1;" vertex="1" parent="1">
          <mxGeometry x="600" y="120" width="200" height="70" as="geometry" />
        </mxCell>
        <mxCell id="nU0FKhonJH8cC0q0gZY5-25" value="&lt;font style=&quot;font-size: 16px;&quot;&gt;makeMove(board)&lt;/font&gt;" style="text;html=1;align=left;verticalAlign=middle;resizable=0;points=[];autosize=1;strokeColor=none;fillColor=none;" vertex="1" parent="nU0FKhonJH8cC0q0gZY5-24">
          <mxGeometry x="6" y="30" width="150" height="30" as="geometry" />
        </mxCell>
        <mxCell id="nU0FKhonJH8cC0q0gZY5-26" value="HumanPlayer" style="swimlane;whiteSpace=wrap;html=1;" vertex="1" parent="1">
          <mxGeometry x="730" y="280" width="200" height="70" as="geometry" />
        </mxCell>
        <mxCell id="nU0FKhonJH8cC0q0gZY5-58" value="&lt;font style=&quot;font-size: 16px;&quot;&gt;makeMove(board)&lt;/font&gt;" style="text;html=1;align=left;verticalAlign=middle;resizable=0;points=[];autosize=1;strokeColor=none;fillColor=none;" vertex="1" parent="nU0FKhonJH8cC0q0gZY5-26">
          <mxGeometry x="10" y="30" width="150" height="30" as="geometry" />
        </mxCell>
        <mxCell id="nU0FKhonJH8cC0q0gZY5-28" value="AIPlayer" style="swimlane;whiteSpace=wrap;html=1;startSize=23;" vertex="1" parent="1">
          <mxGeometry x="470" y="265" width="200" height="100" as="geometry" />
        </mxCell>
        <mxCell id="nU0FKhonJH8cC0q0gZY5-30" value="&lt;font style=&quot;font-size: 16px;&quot;&gt;evaluate&lt;/font&gt;&lt;span style=&quot;font-size: 16px;&quot;&gt;(board)&lt;/span&gt;" style="text;html=1;align=left;verticalAlign=middle;resizable=0;points=[];autosize=1;strokeColor=none;fillColor=none;" vertex="1" parent="nU0FKhonJH8cC0q0gZY5-28">
          <mxGeometry x="6" y="65" width="140" height="30" as="geometry" />
        </mxCell>
        <mxCell id="nU0FKhonJH8cC0q0gZY5-59" value="&lt;font style=&quot;font-size: 16px;&quot;&gt;makeMove(board)&lt;/font&gt;" style="text;html=1;align=left;verticalAlign=middle;resizable=0;points=[];autosize=1;strokeColor=none;fillColor=none;" vertex="1" parent="nU0FKhonJH8cC0q0gZY5-28">
          <mxGeometry x="6" y="35" width="150" height="30" as="geometry" />
        </mxCell>
        <mxCell id="nU0FKhonJH8cC0q0gZY5-32" value="ConsoleView" style="swimlane;whiteSpace=wrap;html=1;" vertex="1" parent="1">
          <mxGeometry x="-200" y="120" width="200" height="130" as="geometry" />
        </mxCell>
        <mxCell id="nU0FKhonJH8cC0q0gZY5-33" value="&lt;font style=&quot;font-size: 16px;&quot;&gt;render(board)&lt;/font&gt;" style="text;html=1;align=left;verticalAlign=middle;resizable=0;points=[];autosize=1;strokeColor=none;fillColor=none;" vertex="1" parent="nU0FKhonJH8cC0q0gZY5-32">
          <mxGeometry x="6" y="30" width="120" height="30" as="geometry" />
        </mxCell>
        <mxCell id="nU0FKhonJH8cC0q0gZY5-34" value="&lt;font style=&quot;font-size: 16px;&quot;&gt;getHumanMove()&lt;/font&gt;" style="text;html=1;align=left;verticalAlign=middle;resizable=0;points=[];autosize=1;strokeColor=none;fillColor=none;" vertex="1" parent="nU0FKhonJH8cC0q0gZY5-32">
          <mxGeometry x="6" y="60" width="150" height="30" as="geometry" />
        </mxCell>
        <mxCell id="nU0FKhonJH8cC0q0gZY5-35" value="&lt;font style=&quot;font-size: 16px;&quot;&gt;showMessage()&lt;/font&gt;" style="text;html=1;align=left;verticalAlign=middle;resizable=0;points=[];autosize=1;strokeColor=none;fillColor=none;" vertex="1" parent="nU0FKhonJH8cC0q0gZY5-32">
          <mxGeometry x="6" y="90" width="140" height="30" as="geometry" />
        </mxCell>
        <mxCell id="nU0FKhonJH8cC0q0gZY5-39" value="&lt;font style=&quot;font-size: 16px;&quot;&gt;1&lt;/font&gt;" style="text;html=1;align=left;verticalAlign=middle;resizable=0;points=[];autosize=1;strokeColor=none;fillColor=none;" vertex="1" parent="1">
          <mxGeometry x="350" y="120" width="30" height="30" as="geometry" />
        </mxCell>
        <mxCell id="nU0FKhonJH8cC0q0gZY5-41" value="&lt;font style=&quot;font-size: 16px;&quot;&gt;1&lt;/font&gt;" style="text;html=1;align=left;verticalAlign=middle;resizable=0;points=[];autosize=1;strokeColor=none;fillColor=none;" vertex="1" parent="1">
          <mxGeometry x="580" y="120" width="30" height="30" as="geometry" />
        </mxCell>
        <mxCell id="nU0FKhonJH8cC0q0gZY5-43" value="" style="endArrow=none;html=1;rounded=0;exitX=0.5;exitY=0;exitDx=0;exitDy=0;" edge="1" parent="1" source="nU0FKhonJH8cC0q0gZY5-28">
          <mxGeometry width="50" height="50" relative="1" as="geometry">
            <mxPoint x="560" y="260" as="sourcePoint" />
            <mxPoint x="700" y="210" as="targetPoint" />
            <Array as="points">
              <mxPoint x="570" y="240" />
              <mxPoint x="700" y="240" />
            </Array>
          </mxGeometry>
        </mxCell>
        <mxCell id="nU0FKhonJH8cC0q0gZY5-44" value="" style="endArrow=none;html=1;rounded=0;exitX=0.5;exitY=0;exitDx=0;exitDy=0;" edge="1" parent="1" source="nU0FKhonJH8cC0q0gZY5-26">
          <mxGeometry width="50" height="50" relative="1" as="geometry">
            <mxPoint x="830" y="270" as="sourcePoint" />
            <mxPoint x="700" y="240" as="targetPoint" />
            <Array as="points">
              <mxPoint x="830" y="240" />
            </Array>
          </mxGeometry>
        </mxCell>
        <mxCell id="nU0FKhonJH8cC0q0gZY5-46" value="" style="triangle;whiteSpace=wrap;html=1;rotation=-90;" vertex="1" parent="1">
          <mxGeometry x="686.77" y="187.06" width="26.45" height="30.99" as="geometry" />
        </mxCell>
        <mxCell id="nU0FKhonJH8cC0q0gZY5-48" value="" style="endArrow=classic;html=1;rounded=0;exitX=0.5;exitY=1;exitDx=0;exitDy=0;entryX=0.5;entryY=0;entryDx=0;entryDy=0;" edge="1" parent="1" source="nU0FKhonJH8cC0q0gZY5-1" target="nU0FKhonJH8cC0q0gZY5-19">
          <mxGeometry width="50" height="50" relative="1" as="geometry">
            <mxPoint x="200" y="470" as="sourcePoint" />
            <mxPoint x="250" y="420" as="targetPoint" />
          </mxGeometry>
        </mxCell>
        <mxCell id="nU0FKhonJH8cC0q0gZY5-49" value="&lt;font style=&quot;font-size: 16px;&quot;&gt;1&lt;/font&gt;" style="text;html=1;align=left;verticalAlign=middle;resizable=0;points=[];autosize=1;strokeColor=none;fillColor=none;" vertex="1" parent="1">
          <mxGeometry x="200" y="390" width="30" height="30" as="geometry" />
        </mxCell>
        <mxCell id="nU0FKhonJH8cC0q0gZY5-50" value="&lt;font style=&quot;font-size: 16px;&quot;&gt;*&lt;/font&gt;" style="text;html=1;align=left;verticalAlign=middle;resizable=0;points=[];autosize=1;strokeColor=none;fillColor=none;" vertex="1" parent="1">
          <mxGeometry x="200" y="510" width="30" height="30" as="geometry" />
        </mxCell>
        <mxCell id="nU0FKhonJH8cC0q0gZY5-60" value="Game" style="swimlane;whiteSpace=wrap;html=1;" vertex="1" parent="1">
          <mxGeometry x="360" y="-320" width="240" height="270" as="geometry">
            <mxRectangle x="120" y="120" width="140" height="30" as="alternateBounds" />
          </mxGeometry>
        </mxCell>
        <mxCell id="nU0FKhonJH8cC0q0gZY5-61" value="&lt;font style=&quot;font-size: 16px;&quot;&gt;board: Board [1]&lt;/font&gt;" style="text;html=1;align=left;verticalAlign=middle;whiteSpace=wrap;rounded=0;" vertex="1" parent="nU0FKhonJH8cC0q0gZY5-60">
          <mxGeometry x="10" y="30" width="120" height="30" as="geometry" />
        </mxCell>
        <mxCell id="nU0FKhonJH8cC0q0gZY5-62" value="&lt;font style=&quot;font-size: 16px;&quot;&gt;player1: Player [1]&lt;/font&gt;" style="text;html=1;align=left;verticalAlign=middle;whiteSpace=wrap;rounded=0;" vertex="1" parent="nU0FKhonJH8cC0q0gZY5-60">
          <mxGeometry x="10" y="60" width="190" height="30" as="geometry" />
        </mxCell>
        <mxCell id="nU0FKhonJH8cC0q0gZY5-64" value="&lt;span style=&quot;text-wrap-mode: wrap;&quot;&gt;&lt;font style=&quot;font-size: 16px; color: rgb(0, 0, 0);&quot; face=&quot;Helvetica&quot;&gt;playTurn()&lt;/font&gt;&lt;/span&gt;" style="text;html=1;align=left;verticalAlign=middle;resizable=0;points=[];autosize=1;strokeColor=none;fillColor=none;" vertex="1" parent="nU0FKhonJH8cC0q0gZY5-60">
          <mxGeometry x="10" y="210" width="100" height="30" as="geometry" />
        </mxCell>
        <mxCell id="nU0FKhonJH8cC0q0gZY5-65" value="&lt;span style=&quot;text-wrap-mode: wrap;&quot;&gt;&lt;font style=&quot;font-size: 16px; color: rgb(0, 0, 0);&quot; face=&quot;Helvetica&quot;&gt;displayResult()&lt;/font&gt;&lt;/span&gt;" style="text;html=1;align=left;verticalAlign=middle;resizable=0;points=[];autosize=1;strokeColor=none;fillColor=none;" vertex="1" parent="nU0FKhonJH8cC0q0gZY5-60">
          <mxGeometry x="10" y="240" width="130" height="30" as="geometry" />
        </mxCell>
        <mxCell id="nU0FKhonJH8cC0q0gZY5-67" value="&lt;font style=&quot;font-size: 16px;&quot;&gt;start()&lt;/font&gt;" style="text;html=1;align=left;verticalAlign=middle;resizable=0;points=[];autosize=1;strokeColor=none;fillColor=none;" vertex="1" parent="nU0FKhonJH8cC0q0gZY5-60">
          <mxGeometry x="10" y="150" width="70" height="30" as="geometry" />
        </mxCell>
        <mxCell id="nU0FKhonJH8cC0q0gZY5-68" value="&lt;font style=&quot;font-size: 16px;&quot;&gt;switchPlayer()&lt;/font&gt;" style="text;html=1;align=left;verticalAlign=middle;resizable=0;points=[];autosize=1;strokeColor=none;fillColor=none;" vertex="1" parent="nU0FKhonJH8cC0q0gZY5-60">
          <mxGeometry x="10" y="180" width="120" height="30" as="geometry" />
        </mxCell>
        <mxCell id="nU0FKhonJH8cC0q0gZY5-69" value="&lt;font style=&quot;font-size: 16px;&quot;&gt;player2: Player [1]&lt;/font&gt;" style="text;html=1;align=left;verticalAlign=middle;whiteSpace=wrap;rounded=0;" vertex="1" parent="nU0FKhonJH8cC0q0gZY5-60">
          <mxGeometry x="10" y="90" width="190" height="30" as="geometry" />
        </mxCell>
        <mxCell id="nU0FKhonJH8cC0q0gZY5-70" value="" style="endArrow=none;html=1;rounded=0;" edge="1" parent="nU0FKhonJH8cC0q0gZY5-60">
          <mxGeometry width="50" height="50" relative="1" as="geometry">
            <mxPoint y="150" as="sourcePoint" />
            <mxPoint x="240" y="150" as="targetPoint" />
          </mxGeometry>
        </mxCell>
        <mxCell id="nU0FKhonJH8cC0q0gZY5-80" value="&lt;font style=&quot;font-size: 16px;&quot;&gt;view: ConsoleView&lt;/font&gt;" style="text;html=1;align=left;verticalAlign=middle;whiteSpace=wrap;rounded=0;" vertex="1" parent="nU0FKhonJH8cC0q0gZY5-60">
          <mxGeometry x="10" y="120" width="190" height="30" as="geometry" />
        </mxCell>
        <mxCell id="nU0FKhonJH8cC0q0gZY5-71" value="" style="endArrow=classic;html=1;rounded=0;entryX=0.5;entryY=0;entryDx=0;entryDy=0;" edge="1" parent="1" target="nU0FKhonJH8cC0q0gZY5-1">
          <mxGeometry width="50" height="50" relative="1" as="geometry">
            <mxPoint x="480" y="-50" as="sourcePoint" />
            <mxPoint x="510" as="targetPoint" />
            <Array as="points">
              <mxPoint x="480" />
              <mxPoint x="220" />
            </Array>
          </mxGeometry>
        </mxCell>
        <mxCell id="nU0FKhonJH8cC0q0gZY5-72" value="" style="endArrow=classic;html=1;rounded=0;entryX=0.5;entryY=0;entryDx=0;entryDy=0;" edge="1" parent="1" target="nU0FKhonJH8cC0q0gZY5-24">
          <mxGeometry width="50" height="50" relative="1" as="geometry">
            <mxPoint x="480" as="sourcePoint" />
            <mxPoint x="570" y="-10" as="targetPoint" />
            <Array as="points">
              <mxPoint x="700" />
            </Array>
          </mxGeometry>
        </mxCell>
        <mxCell id="nU0FKhonJH8cC0q0gZY5-73" value="&lt;font style=&quot;font-size: 16px;&quot;&gt;1&lt;/font&gt;" style="text;html=1;align=left;verticalAlign=middle;resizable=0;points=[];autosize=1;strokeColor=none;fillColor=none;" vertex="1" parent="1">
          <mxGeometry x="450" y="-50" width="30" height="30" as="geometry" />
        </mxCell>
        <mxCell id="nU0FKhonJH8cC0q0gZY5-74" value="&lt;font style=&quot;font-size: 16px;&quot;&gt;1&lt;/font&gt;" style="text;html=1;align=left;verticalAlign=middle;resizable=0;points=[];autosize=1;strokeColor=none;fillColor=none;" vertex="1" parent="1">
          <mxGeometry x="200" y="80" width="30" height="30" as="geometry" />
        </mxCell>
        <mxCell id="nU0FKhonJH8cC0q0gZY5-76" value="&lt;font style=&quot;font-size: 16px;&quot;&gt;2&lt;/font&gt;" style="text;html=1;align=left;verticalAlign=middle;resizable=0;points=[];autosize=1;strokeColor=none;fillColor=none;" vertex="1" parent="1">
          <mxGeometry x="680" y="80" width="30" height="30" as="geometry" />
        </mxCell>
        <mxCell id="nU0FKhonJH8cC0q0gZY5-77" value="" style="endArrow=classic;startArrow=classic;html=1;rounded=0;" edge="1" parent="1">
          <mxGeometry width="50" height="50" relative="1" as="geometry">
            <mxPoint x="340" y="160" as="sourcePoint" />
            <mxPoint x="600" y="160" as="targetPoint" />
          </mxGeometry>
        </mxCell>
        <mxCell id="nU0FKhonJH8cC0q0gZY5-81" value="" style="endArrow=classic;html=1;rounded=0;entryX=0.5;entryY=0;entryDx=0;entryDy=0;" edge="1" parent="1" target="nU0FKhonJH8cC0q0gZY5-32">
          <mxGeometry width="50" height="50" relative="1" as="geometry">
            <mxPoint x="220" as="sourcePoint" />
            <mxPoint x="180" y="-20" as="targetPoint" />
            <Array as="points">
              <mxPoint x="-100" />
            </Array>
          </mxGeometry>
        </mxCell>
        <mxCell id="nU0FKhonJH8cC0q0gZY5-82" value="&lt;font style=&quot;font-size: 16px;&quot;&gt;1&lt;/font&gt;" style="text;html=1;align=left;verticalAlign=middle;resizable=0;points=[];autosize=1;strokeColor=none;fillColor=none;" vertex="1" parent="1">
          <mxGeometry x="-120" y="80" width="30" height="30" as="geometry" />
        </mxCell>
        <mxCell id="nU0FKhonJH8cC0q0gZY5-83" value="" style="endArrow=classic;html=1;rounded=0;" edge="1" parent="1">
          <mxGeometry width="50" height="50" relative="1" as="geometry">
            <mxPoint y="160" as="sourcePoint" />
            <mxPoint x="100" y="160" as="targetPoint" />
            <Array as="points">
              <mxPoint x="50" y="160" />
            </Array>
          </mxGeometry>
        </mxCell>
        <mxCell id="nU0FKhonJH8cC0q0gZY5-84" value="&lt;font style=&quot;font-size: 16px;&quot;&gt;1&lt;/font&gt;" style="text;html=1;align=left;verticalAlign=middle;resizable=0;points=[];autosize=1;strokeColor=none;fillColor=none;" vertex="1" parent="1">
          <mxGeometry x="80" y="120" width="30" height="30" as="geometry" />
        </mxCell>
        <mxCell id="nU0FKhonJH8cC0q0gZY5-85" value="&lt;font style=&quot;font-size: 16px;&quot;&gt;1&lt;/font&gt;" style="text;html=1;align=left;verticalAlign=middle;resizable=0;points=[];autosize=1;strokeColor=none;fillColor=none;" vertex="1" parent="1">
          <mxGeometry x="10" y="120" width="30" height="30" as="geometry" />
        </mxCell>
      </root>
    </mxGraphModel>
  </diagram>
</mxfile>
